<?xml version="1.0" encoding="UTF-8" standalone="no"?>
<!DOCTYPE svg PUBLIC "-//W3C//DTD SVG 1.1//EN" "http://www.w3.org/Graphics/SVG/1.1/DTD/svg11.dtd">
<svg width="100%" height="100%" viewBox="0 0 1024 1024" version="1.1" xmlns="http://www.w3.org/2000/svg" xmlns:xlink="http://www.w3.org/1999/xlink" xml:space="preserve" xmlns:serif="http://www.serif.com/" style="fill-rule:evenodd;clip-rule:evenodd;stroke-linecap:round;stroke-linejoin:round;stroke-miterlimit:1.5;">
    <g transform="matrix(1,0,0,1,1024,373)">
        <path d="M0,278C0,292.243 0.006,306.483 -0.084,320.726C-0.153,332.722 -0.291,344.716 -0.616,356.709C-1.325,382.843 -2.863,409.203 -7.508,435.047C-12.221,461.264 -19.912,485.664 -32.037,509.484C-43.954,532.897 -59.526,554.321 -78.102,572.898C-96.679,591.474 -118.103,607.046 -141.516,618.963C-165.336,631.088 -189.736,638.779 -215.953,643.492C-241.797,648.137 -268.157,649.675 -294.291,650.384C-306.284,650.709 -318.278,650.847 -330.274,650.916C-344.517,651.006 -358.757,651 -373,651L-651,651C-665.243,651 -679.483,651.006 -693.726,650.916C-705.722,650.847 -717.716,650.709 -729.709,650.384C-755.842,649.675 -782.203,648.137 -808.046,643.492C-834.264,638.779 -858.664,631.088 -882.484,618.963C-905.896,607.046 -927.321,591.474 -945.897,572.898C-964.474,554.321 -980.045,532.897 -991.963,509.484C-1004.09,485.664 -1011.78,461.264 -1016.49,435.047C-1021.14,409.203 -1022.68,382.843 -1023.38,356.709C-1023.71,344.716 -1023.85,332.722 -1023.92,320.726C-1024.01,306.483 -1024,292.243 -1024,278L-1024,0C-1024,-14.243 -1024.01,-28.483 -1023.92,-42.726C-1023.85,-54.722 -1023.71,-66.716 -1023.38,-78.709C-1022.68,-104.842 -1021.14,-131.203 -1016.49,-157.046C-1011.78,-183.264 -1004.09,-207.664 -991.963,-231.484C-980.045,-254.896 -964.474,-276.321 -945.897,-294.897C-927.321,-313.474 -905.896,-329.045 -882.484,-340.963C-858.664,-353.087 -834.264,-360.779 -808.046,-365.491C-782.203,-370.137 -755.842,-371.675 -729.709,-372.384C-717.716,-372.709 -705.722,-372.847 -693.726,-372.916C-679.483,-373.006 -665.243,-373 -651,-373L-373,-373C-358.757,-373 -344.517,-373.006 -330.274,-372.916C-318.278,-372.847 -306.284,-372.709 -294.291,-372.384C-268.157,-371.675 -241.797,-370.137 -215.953,-365.491C-189.736,-360.779 -165.336,-353.087 -141.516,-340.963C-118.103,-329.045 -96.679,-313.474 -78.102,-294.897C-59.526,-276.321 -43.954,-254.896 -32.037,-231.484C-19.912,-207.664 -12.221,-183.264 -7.508,-157.046C-2.863,-131.203 -1.325,-104.842 -0.616,-78.709C-0.291,-66.716 -0.153,-54.722 -0.084,-42.726C0.006,-28.483 0,-14.243 0,0L0,278Z" style="fill:url(#_Linear1);fill-rule:nonzero;"/>
        <path d="M0,278C0,292.243 0.006,306.483 -0.084,320.726C-0.153,332.722 -0.291,344.716 -0.616,356.709C-1.325,382.843 -2.863,409.203 -7.508,435.047C-12.221,461.264 -19.912,485.664 -32.037,509.484C-43.954,532.897 -59.526,554.321 -78.102,572.898C-96.679,591.474 -118.103,607.046 -141.516,618.963C-165.336,631.088 -189.736,638.779 -215.953,643.492C-241.797,648.137 -268.157,649.675 -294.291,650.384C-306.284,650.709 -318.278,650.847 -330.274,650.916C-344.517,651.006 -358.757,651 -373,651L-651,651C-665.243,651 -679.483,651.006 -693.726,650.916C-705.722,650.847 -717.716,650.709 -729.709,650.384C-755.842,649.675 -782.203,648.137 -808.046,643.492C-834.264,638.779 -858.664,631.088 -882.484,618.963C-905.896,607.046 -927.321,591.474 -945.897,572.898C-964.474,554.321 -980.045,532.897 -991.963,509.484C-1004.09,485.664 -1011.78,461.264 -1016.49,435.047C-1021.14,409.203 -1022.68,382.843 -1023.38,356.709C-1023.71,344.716 -1023.85,332.722 -1023.92,320.726C-1024.01,306.483 -1024,292.243 -1024,278L-1024,0C-1024,-14.243 -1024.01,-28.483 -1023.92,-42.726C-1023.85,-54.722 -1023.71,-66.716 -1023.38,-78.709C-1022.68,-104.842 -1021.14,-131.203 -1016.49,-157.046C-1011.78,-183.264 -1004.09,-207.664 -991.963,-231.484C-980.045,-254.896 -964.474,-276.321 -945.897,-294.897C-927.321,-313.474 -905.896,-329.045 -882.484,-340.963C-858.664,-353.087 -834.264,-360.779 -808.046,-365.491C-782.203,-370.137 -755.842,-371.675 -729.709,-372.384C-717.716,-372.709 -705.722,-372.847 -693.726,-372.916C-679.483,-373.006 -665.243,-373 -651,-373L-373,-373C-358.757,-373 -344.517,-373.006 -330.274,-372.916C-318.278,-372.847 -306.284,-372.709 -294.291,-372.384C-268.157,-371.675 -241.797,-370.137 -215.953,-365.491C-189.736,-360.779 -165.336,-353.087 -141.516,-340.963C-118.103,-329.045 -96.679,-313.474 -78.102,-294.897C-59.526,-276.321 -43.954,-254.896 -32.037,-231.484C-19.912,-207.664 -12.221,-183.264 -7.508,-157.046C-2.863,-131.203 -1.325,-104.842 -0.616,-78.709C-0.291,-66.716 -0.153,-54.722 -0.084,-42.726C0.006,-28.483 0,-14.243 0,0L0,278ZM-0.95,278C-0.95,292.241 -0.944,306.479 -1.034,320.72C-1.034,320.72 -1.034,320.72 -1.034,320.721C-1.103,332.71 -1.241,344.697 -1.566,356.683C-2.273,382.77 -3.806,409.082 -8.443,434.879C-13.139,461.003 -20.802,485.317 -32.884,509.053C-44.755,532.377 -60.268,553.72 -78.774,572.226C-97.28,590.732 -118.623,606.245 -141.947,618.116C-165.683,630.198 -189.997,637.861 -216.121,642.557C-241.918,647.194 -268.23,648.727 -294.317,649.434C-306.303,649.759 -318.29,649.897 -330.279,649.966C-330.28,649.966 -330.28,649.966 -330.28,649.966C-344.521,650.056 -358.759,650.05 -373,650.05C-373,650.05 -651,650.05 -651,650.05C-665.241,650.05 -679.479,650.056 -693.72,649.966C-693.72,649.966 -693.72,649.966 -693.721,649.966C-705.71,649.897 -717.697,649.759 -729.683,649.434C-755.769,648.727 -782.082,647.194 -807.878,642.557C-834.003,637.861 -858.317,630.198 -882.053,618.116C-905.376,606.245 -926.72,590.732 -945.225,572.226C-963.732,553.72 -979.244,532.377 -991.116,509.053C-1003.2,485.317 -1010.86,461.003 -1015.56,434.879C-1020.19,409.082 -1021.73,382.77 -1022.43,356.683C-1022.43,356.683 -1022.43,356.683 -1022.43,356.683C-1022.76,344.697 -1022.9,332.71 -1022.97,320.721C-1022.97,320.72 -1022.97,320.72 -1022.97,320.72C-1023.06,306.479 -1023.05,292.241 -1023.05,278L-1023.05,0C-1023.05,-14.241 -1023.06,-28.479 -1022.97,-42.72C-1022.97,-42.72 -1022.97,-42.72 -1022.97,-42.721C-1022.9,-54.71 -1022.76,-66.697 -1022.43,-78.683C-1022.43,-78.683 -1022.43,-78.683 -1022.43,-78.683C-1021.73,-104.769 -1020.19,-131.082 -1015.56,-156.878C-1010.86,-183.003 -1003.2,-207.317 -991.116,-231.053C-979.244,-254.376 -963.732,-275.72 -945.225,-294.225C-926.72,-312.732 -905.376,-328.244 -882.053,-340.116C-858.317,-352.197 -834.003,-359.861 -807.878,-364.556C-782.082,-369.194 -755.769,-370.727 -729.683,-371.434C-717.697,-371.759 -705.71,-371.897 -693.721,-371.966C-693.72,-371.966 -693.72,-371.966 -693.72,-371.966C-679.479,-372.056 -665.241,-372.05 -651,-372.05L-373,-372.05C-358.759,-372.05 -344.521,-372.056 -330.28,-371.966C-330.28,-371.966 -330.28,-371.966 -330.279,-371.966C-318.29,-371.897 -306.303,-371.759 -294.317,-371.434C-268.23,-370.727 -241.918,-369.194 -216.121,-364.556C-189.997,-359.861 -165.683,-352.197 -141.947,-340.116C-118.623,-328.244 -97.28,-312.732 -78.774,-294.225C-60.268,-275.72 -44.755,-254.376 -32.884,-231.053C-20.802,-207.317 -13.139,-183.003 -8.443,-156.878C-3.806,-131.082 -2.273,-104.769 -1.566,-78.683C-1.241,-66.697 -1.103,-54.71 -1.034,-42.721C-1.034,-42.72 -1.034,-42.72 -1.034,-42.72C-0.944,-28.479 -0.95,-14.241 -0.95,0L-0.95,278Z" style="fill:rgb(139,139,139);"/>
    </g>
    <g transform="matrix(1,0,0,1,0,-195.791)">
        <path d="M116,767.511L512,512L907,512" style="fill:none;stroke:rgb(255,152,0);stroke-width:60px;"/>
    </g>
    <g transform="matrix(1.17568,0,0,1.17568,-124.041,-243.276)">
        <circle cx="541" cy="493" r="148" style="fill:url(#_Linear2);stroke:rgb(255,152,0);stroke-width:15.31px;"/>
    </g>
    <g transform="matrix(33.3733,0,0,33.3733,-8114.93,-7736.98)">
        <path d="M251.526,251.799C251.526,251.455 251.586,251.151 251.706,250.887C251.826,250.623 251.986,250.403 252.186,250.227C252.378,250.059 252.596,249.931 252.84,249.843C253.084,249.755 253.33,249.711 253.578,249.711C253.826,249.711 254.072,249.755 254.316,249.843C254.56,249.931 254.782,250.059 254.982,250.227C255.174,250.403 255.33,250.623 255.45,250.887C255.57,251.151 255.63,251.455 255.63,251.799L255.63,256.311C255.63,256.671 255.57,256.979 255.45,257.235C255.33,257.491 255.174,257.703 254.982,257.871C254.782,258.047 254.56,258.179 254.316,258.267C254.072,258.355 253.826,258.399 253.578,258.399C253.33,258.399 253.084,258.355 252.84,258.267C252.596,258.179 252.378,258.047 252.186,257.871C251.986,257.703 251.826,257.491 251.706,257.235C251.586,256.979 251.526,256.671 251.526,256.311L251.526,251.799ZM252.75,256.311C252.75,256.607 252.832,256.825 252.996,256.965C253.16,257.105 253.354,257.175 253.578,257.175C253.802,257.175 253.996,257.105 254.16,256.965C254.324,256.825 254.406,256.607 254.406,256.311L254.406,251.799C254.406,251.503 254.324,251.285 254.16,251.145C253.996,251.005 253.802,250.935 253.578,250.935C253.354,250.935 253.16,251.005 252.996,251.145C252.832,251.285 252.75,251.503 252.75,251.799L252.75,256.311Z" style="fill-rule:nonzero;"/>
        <path d="M260.67,252.243L259.446,252.243L259.446,251.967C259.446,251.687 259.38,251.445 259.248,251.241C259.116,251.037 258.894,250.935 258.582,250.935C258.414,250.935 258.278,250.967 258.174,251.031C258.07,251.095 257.986,251.175 257.922,251.271C257.858,251.375 257.814,251.493 257.79,251.625C257.766,251.757 257.754,251.895 257.754,252.039C257.754,252.207 257.76,252.347 257.772,252.459C257.784,252.571 257.814,252.671 257.862,252.759C257.91,252.847 257.98,252.923 258.072,252.987C258.164,253.051 258.29,253.115 258.45,253.179L259.386,253.551C259.658,253.655 259.878,253.777 260.046,253.917C260.214,254.057 260.346,254.219 260.442,254.403C260.53,254.595 260.59,254.813 260.622,255.057C260.654,255.301 260.67,255.579 260.67,255.891C260.67,256.251 260.634,256.585 260.562,256.893C260.49,257.201 260.374,257.463 260.214,257.679C260.046,257.903 259.826,258.079 259.554,258.207C259.282,258.335 258.95,258.399 258.558,258.399C258.262,258.399 257.986,258.347 257.73,258.243C257.474,258.139 257.254,257.995 257.07,257.811C256.886,257.627 256.74,257.413 256.632,257.169C256.524,256.925 256.47,256.659 256.47,256.371L256.47,255.915L257.694,255.915L257.694,256.299C257.694,256.523 257.76,256.725 257.892,256.905C258.024,257.085 258.246,257.175 258.558,257.175C258.766,257.175 258.928,257.145 259.044,257.085C259.16,257.025 259.25,256.939 259.314,256.827C259.378,256.715 259.416,256.581 259.428,256.425C259.44,256.269 259.446,256.095 259.446,255.903C259.446,255.679 259.438,255.495 259.422,255.351C259.406,255.207 259.374,255.091 259.326,255.003C259.27,254.915 259.196,254.843 259.104,254.787C259.012,254.731 258.89,254.671 258.738,254.607L257.862,254.247C257.334,254.031 256.98,253.745 256.8,253.389C256.62,253.033 256.53,252.587 256.53,252.051C256.53,251.731 256.574,251.427 256.662,251.139C256.75,250.851 256.882,250.603 257.058,250.395C257.226,250.187 257.44,250.021 257.7,249.897C257.96,249.773 258.27,249.711 258.63,249.711C258.934,249.711 259.212,249.767 259.464,249.879C259.716,249.991 259.934,250.139 260.118,250.323C260.486,250.707 260.67,251.147 260.67,251.643L260.67,252.243Z" style="fill-rule:nonzero;"/>
        <path d="M265.47,255.891L265.47,256.419C265.47,256.683 265.42,256.933 265.32,257.169C265.22,257.405 265.082,257.615 264.906,257.799C264.73,257.983 264.524,258.129 264.288,258.237C264.052,258.345 263.798,258.399 263.526,258.399C263.294,258.399 263.058,258.367 262.818,258.303C262.578,258.239 262.362,258.127 262.17,257.967C261.978,257.807 261.82,257.601 261.696,257.349C261.572,257.097 261.51,256.775 261.51,256.383L261.51,251.679C261.51,251.399 261.558,251.139 261.654,250.899C261.75,250.659 261.886,250.451 262.062,250.275C262.238,250.099 262.448,249.961 262.692,249.861C262.936,249.761 263.206,249.711 263.502,249.711C264.078,249.711 264.546,249.899 264.906,250.275C265.082,250.459 265.22,250.677 265.32,250.929C265.42,251.181 265.47,251.455 265.47,251.751L265.47,252.231L264.246,252.231L264.246,251.823C264.246,251.583 264.178,251.375 264.042,251.199C263.906,251.023 263.722,250.935 263.49,250.935C263.186,250.935 262.984,251.029 262.884,251.217C262.784,251.405 262.734,251.643 262.734,251.931L262.734,256.299C262.734,256.547 262.788,256.755 262.896,256.923C263.004,257.091 263.198,257.175 263.478,257.175C263.558,257.175 263.644,257.161 263.736,257.133C263.828,257.105 263.914,257.059 263.994,256.995C264.066,256.931 264.126,256.843 264.174,256.731C264.222,256.619 264.246,256.479 264.246,256.311L264.246,255.891L265.47,255.891Z" style="fill-rule:nonzero;"/>
    </g>
    <defs>
        <linearGradient id="_Linear1" x1="0" y1="0" x2="1" y2="0" gradientUnits="userSpaceOnUse" gradientTransform="matrix(7.99694e-14,-1306,1306,7.99694e-14,-476,1010)"><stop offset="0" style="stop-color:rgb(183,183,183);stop-opacity:1"/><stop offset="1" style="stop-color:white;stop-opacity:1"/></linearGradient>
        <linearGradient id="_Linear2" x1="0" y1="0" x2="1" y2="0" gradientUnits="userSpaceOnUse" gradientTransform="matrix(223.701,431.625,-431.625,223.701,465.299,368.816)"><stop offset="0" style="stop-color:rgb(255,185,88);stop-opacity:1"/><stop offset="0.3" style="stop-color:rgb(255,152,0);stop-opacity:1"/><stop offset="1" style="stop-color:rgb(153,91,0);stop-opacity:1"/></linearGradient>
    </defs>
</svg>
